<svg id="visual" viewBox="0 0 900 600" width="900" height="600" xmlns="http://www.w3.org/2000/svg" xmlns:xlink="http://www.w3.org/1999/xlink" version="1.1"><rect x="0" y="0" width="900" height="600" fill="#000000"></rect><path d="M0 380L82 380L82 373L164 373L164 304L245 304L245 308L327 308L327 370L409 370L409 406L491 406L491 430L573 430L573 414L655 414L655 362L736 362L736 285L818 285L818 381L900 381L900 314L900 601L900 601L818 601L818 601L736 601L736 601L655 601L655 601L573 601L573 601L491 601L491 601L409 601L409 601L327 601L327 601L245 601L245 601L164 601L164 601L82 601L82 601L0 601Z" fill="#ffffff"></path><path d="M0 380L82 380L82 397L164 397L164 376L245 376L245 422L327 422L327 375L409 375L409 345L491 345L491 336L573 336L573 447L655 447L655 452L736 452L736 452L818 452L818 379L900 379L900 324L900 601L900 601L818 601L818 601L736 601L736 601L655 601L655 601L573 601L573 601L491 601L491 601L409 601L409 601L327 601L327 601L245 601L245 601L164 601L164 601L82 601L82 601L0 601Z" fill="#f2f2f2"></path><path d="M0 390L82 390L82 368L164 368L164 342L245 342L245 447L327 447L327 482L409 482L409 382L491 382L491 372L573 372L573 384L655 384L655 391L736 391L736 457L818 457L818 445L900 445L900 436L900 601L900 601L818 601L818 601L736 601L736 601L655 601L655 601L573 601L573 601L491 601L491 601L409 601L409 601L327 601L327 601L245 601L245 601L164 601L164 601L82 601L82 601L0 601Z" fill="#e5e5e5"></path><path d="M0 384L82 384L82 422L164 422L164 488L245 488L245 455L327 455L327 494L409 494L409 390L491 390L491 457L573 457L573 456L655 456L655 451L736 451L736 495L818 495L818 405L900 405L900 420L900 601L900 601L818 601L818 601L736 601L736 601L655 601L655 601L573 601L573 601L491 601L491 601L409 601L409 601L327 601L327 601L245 601L245 601L164 601L164 601L82 601L82 601L0 601Z" fill="#d9d9d9"></path><path d="M0 474L82 474L82 466L164 466L164 470L245 470L245 503L327 503L327 478L409 478L409 417L491 417L491 424L573 424L573 411L655 411L655 449L736 449L736 424L818 424L818 429L900 429L900 468L900 601L900 601L818 601L818 601L736 601L736 601L655 601L655 601L573 601L573 601L491 601L491 601L409 601L409 601L327 601L327 601L245 601L245 601L164 601L164 601L82 601L82 601L0 601Z" fill="#cccccc"></path><path d="M0 474L82 474L82 518L164 518L164 470L245 470L245 515L327 515L327 534L409 534L409 529L491 529L491 451L573 451L573 505L655 505L655 448L736 448L736 476L818 476L818 504L900 504L900 526L900 601L900 601L818 601L818 601L736 601L736 601L655 601L655 601L573 601L573 601L491 601L491 601L409 601L409 601L327 601L327 601L245 601L245 601L164 601L164 601L82 601L82 601L0 601Z" fill="#c0c0c0"></path><path d="M0 496L82 496L82 550L164 550L164 508L245 508L245 545L327 545L327 496L409 496L409 509L491 509L491 548L573 548L573 537L655 537L655 516L736 516L736 476L818 476L818 523L900 523L900 511L900 601L900 601L818 601L818 601L736 601L736 601L655 601L655 601L573 601L573 601L491 601L491 601L409 601L409 601L327 601L327 601L245 601L245 601L164 601L164 601L82 601L82 601L0 601Z" fill="#b3b3b3"></path><path d="M0 568L82 568L82 505L164 505L164 531L245 531L245 539L327 539L327 557L409 557L409 534L491 534L491 529L573 529L573 553L655 553L655 519L736 519L736 530L818 530L818 562L900 562L900 562L900 601L900 601L818 601L818 601L736 601L736 601L655 601L655 601L573 601L573 601L491 601L491 601L409 601L409 601L327 601L327 601L245 601L245 601L164 601L164 601L82 601L82 601L0 601Z" fill="#a7a7a7"></path><path d="M0 563L82 563L82 555L164 555L164 578L245 578L245 572L327 572L327 561L409 561L409 559L491 559L491 546L573 546L573 549L655 549L655 569L736 569L736 560L818 560L818 570L900 570L900 544L900 601L900 601L818 601L818 601L736 601L736 601L655 601L655 601L573 601L573 601L491 601L491 601L409 601L409 601L327 601L327 601L245 601L245 601L164 601L164 601L82 601L82 601L0 601Z" fill="#9b9b9b"></path></svg>