<svg id="visual" viewBox="0 0 1920 1080" width="1920" height="1080" xmlns="http://www.w3.org/2000/svg" xmlns:xlink="http://www.w3.org/1999/xlink" version="1.1"><g stroke-width="1" stroke-linejoin="bevel"><path d="M880.3 545L885.3 703L1074.7 531Z" fill="#464e58" stroke="#464e58"></path><path d="M885.3 703L1081.7 743L1074.7 531Z" fill="#777d84" stroke="#777d84"></path><path d="M1288 550L1084.7 387L1074.7 531Z" fill="#777d84" stroke="#777d84"></path><path d="M1074.7 531L1084.7 387L880.3 545Z" fill="#abafb3" stroke="#abafb3"></path><path d="M617 687L813.3 867L885.3 703Z" fill="#2f3943" stroke="#2f3943"></path><path d="M885.3 703L1072.7 910L1081.7 743Z" fill="#19242f" stroke="#19242f"></path><path d="M813.3 867L1072.7 910L885.3 703Z" fill="#00101c" stroke="#00101c"></path><path d="M1084.7 387L836.3 345L880.3 545Z" fill="#777d84" stroke="#777d84"></path><path d="M880.3 545L617 687L885.3 703Z" fill="#abafb3" stroke="#abafb3"></path><path d="M1303 704L1288 550L1081.7 743Z" fill="#19242f" stroke="#19242f"></path><path d="M1081.7 743L1288 550L1074.7 531Z" fill="#00101c" stroke="#00101c"></path><path d="M1261 910L1303 704L1081.7 743Z" fill="#abafb3" stroke="#abafb3"></path><path d="M676 364L631 533L880.3 545Z" fill="#abafb3" stroke="#abafb3"></path><path d="M631 533L617 687L880.3 545Z" fill="#777d84" stroke="#777d84"></path><path d="M836.3 345L676 364L880.3 545Z" fill="#19242f" stroke="#19242f"></path><path d="M1072.7 910L1261 910L1081.7 743Z" fill="#19242f" stroke="#19242f"></path><path d="M1457.3 396L1305 327L1288 550Z" fill="#91969b" stroke="#91969b"></path><path d="M1288 550L1305 327L1084.7 387Z" fill="#91969b" stroke="#91969b"></path><path d="M1084.7 387L1054.7 172L836.3 345Z" fill="#19242f" stroke="#19242f"></path><path d="M1305 327L1054.7 172L1084.7 387Z" fill="#abafb3" stroke="#abafb3"></path><path d="M836.3 345L630 213L676 364Z" fill="#abafb3" stroke="#abafb3"></path><path d="M880.3 1080L1040.7 1080L1072.7 910Z" fill="#91969b" stroke="#91969b"></path><path d="M1072.7 910L1277 1080L1261 910Z" fill="#e2e4e5" stroke="#e2e4e5"></path><path d="M880.3 1080L1072.7 910L813.3 867Z" fill="#ffffff" stroke="#ffffff"></path><path d="M623 1080L880.3 1080L813.3 867Z" fill="#19242f" stroke="#19242f"></path><path d="M617 687L615 926L813.3 867Z" fill="#c6c9cc" stroke="#c6c9cc"></path><path d="M1054.7 172L826.3 165L836.3 345Z" fill="#abafb3" stroke="#abafb3"></path><path d="M1510.3 562L1457.3 396L1288 550Z" fill="#19242f" stroke="#19242f"></path><path d="M1305 327L1316 196L1054.7 172Z" fill="#2f3943" stroke="#2f3943"></path><path d="M1510.3 562L1288 550L1303 704Z" fill="#abafb3" stroke="#abafb3"></path><path d="M1523.3 754L1510.3 562L1303 704Z" fill="#19242f" stroke="#19242f"></path><path d="M1454.3 165L1316 196L1305 327Z" fill="#5e656d" stroke="#5e656d"></path><path d="M826.3 165L630 213L836.3 345Z" fill="#abafb3" stroke="#abafb3"></path><path d="M397.7 331L427.7 546L631 533Z" fill="#00101c" stroke="#00101c"></path><path d="M427.7 546L436.7 722L617 687Z" fill="#5e656d" stroke="#5e656d"></path><path d="M1040.7 1080L1277 1080L1072.7 910Z" fill="#abafb3" stroke="#abafb3"></path><path d="M1261 910L1469.3 876L1303 704Z" fill="#e2e4e5" stroke="#e2e4e5"></path><path d="M1476.3 1080L1469.3 876L1261 910Z" fill="#2f3943" stroke="#2f3943"></path><path d="M1469.3 876L1523.3 754L1303 704Z" fill="#777d84" stroke="#777d84"></path><path d="M427.7 546L617 687L631 533Z" fill="#2f3943" stroke="#2f3943"></path><path d="M617 687L459.7 901L615 926Z" fill="#abafb3" stroke="#abafb3"></path><path d="M397.7 331L631 533L676 364Z" fill="#e2e4e5" stroke="#e2e4e5"></path><path d="M451.7 1080L623 1080L615 926Z" fill="#e2e4e5" stroke="#e2e4e5"></path><path d="M615 926L623 1080L813.3 867Z" fill="#464e58" stroke="#464e58"></path><path d="M436.7 722L459.7 901L617 687Z" fill="#c6c9cc" stroke="#c6c9cc"></path><path d="M1295 0L1048.7 0L1054.7 172Z" fill="#464e58" stroke="#464e58"></path><path d="M1054.7 172L1048.7 0L826.3 165Z" fill="#5e656d" stroke="#5e656d"></path><path d="M826.3 165L601 0L630 213Z" fill="#91969b" stroke="#91969b"></path><path d="M1048.7 0L827.3 0L826.3 165Z" fill="#5e656d" stroke="#5e656d"></path><path d="M630 213L397.7 331L676 364Z" fill="#00101c" stroke="#00101c"></path><path d="M227.3 575L248.3 736L436.7 722Z" fill="#2f3943" stroke="#2f3943"></path><path d="M389.7 143L397.7 331L630 213Z" fill="#19242f" stroke="#19242f"></path><path d="M1457.3 396L1454.3 165L1305 327Z" fill="#00101c" stroke="#00101c"></path><path d="M1316 196L1295 0L1054.7 172Z" fill="#ffffff" stroke="#ffffff"></path><path d="M1703.7 178L1454.3 165L1457.3 396Z" fill="#abafb3" stroke="#abafb3"></path><path d="M1277 1080L1476.3 1080L1261 910Z" fill="#19242f" stroke="#19242f"></path><path d="M1716.7 873L1678.7 755L1523.3 754Z" fill="#91969b" stroke="#91969b"></path><path d="M1454.3 165L1295 0L1316 196Z" fill="#464e58" stroke="#464e58"></path><path d="M459.7 901L451.7 1080L615 926Z" fill="#777d84" stroke="#777d84"></path><path d="M236.3 912L451.7 1080L459.7 901Z" fill="#91969b" stroke="#91969b"></path><path d="M248.3 736L459.7 901L436.7 722Z" fill="#91969b" stroke="#91969b"></path><path d="M1523.3 754L1678.7 755L1510.3 562Z" fill="#91969b" stroke="#91969b"></path><path d="M1510.3 562L1742.7 382L1457.3 396Z" fill="#2f3943" stroke="#2f3943"></path><path d="M1716.7 873L1523.3 754L1469.3 876Z" fill="#e2e4e5" stroke="#e2e4e5"></path><path d="M1678.7 755L1697.7 561L1510.3 562Z" fill="#c6c9cc" stroke="#c6c9cc"></path><path d="M827.3 0L601 0L826.3 165Z" fill="#5e656d" stroke="#5e656d"></path><path d="M227.3 575L436.7 722L427.7 546Z" fill="#00101c" stroke="#00101c"></path><path d="M240.3 374L427.7 546L397.7 331Z" fill="#2f3943" stroke="#2f3943"></path><path d="M240.3 374L227.3 575L427.7 546Z" fill="#00101c" stroke="#00101c"></path><path d="M601 0L389.7 143L630 213Z" fill="#5e656d" stroke="#5e656d"></path><path d="M1476.3 1080L1716.7 873L1469.3 876Z" fill="#00101c" stroke="#00101c"></path><path d="M1920 721L1920 553L1697.7 561Z" fill="#91969b" stroke="#91969b"></path><path d="M208.3 205L240.3 374L397.7 331Z" fill="#00101c" stroke="#00101c"></path><path d="M1697.7 561L1742.7 382L1510.3 562Z" fill="#e2e4e5" stroke="#e2e4e5"></path><path d="M1454.3 165L1511.3 0L1295 0Z" fill="#91969b" stroke="#91969b"></path><path d="M1920 553L1742.7 382L1697.7 561Z" fill="#abafb3" stroke="#abafb3"></path><path d="M0 860L236.3 912L248.3 736Z" fill="#00101c" stroke="#00101c"></path><path d="M248.3 736L236.3 912L459.7 901Z" fill="#464e58" stroke="#464e58"></path><path d="M1703.7 178L1511.3 0L1454.3 165Z" fill="#777d84" stroke="#777d84"></path><path d="M601 0L433.7 0L389.7 143Z" fill="#5e656d" stroke="#5e656d"></path><path d="M389.7 143L208.3 205L397.7 331Z" fill="#c6c9cc" stroke="#c6c9cc"></path><path d="M1742.7 382L1703.7 178L1457.3 396Z" fill="#91969b" stroke="#91969b"></path><path d="M0 1080L240.3 1080L236.3 912Z" fill="#777d84" stroke="#777d84"></path><path d="M236.3 912L240.3 1080L451.7 1080Z" fill="#e2e4e5" stroke="#e2e4e5"></path><path d="M240.3 374L0 574L227.3 575Z" fill="#abafb3" stroke="#abafb3"></path><path d="M227.3 575L0 747L248.3 736Z" fill="#abafb3" stroke="#abafb3"></path><path d="M214.3 0L208.3 205L389.7 143Z" fill="#19242f" stroke="#19242f"></path><path d="M1476.3 1080L1742.7 1080L1716.7 873Z" fill="#ffffff" stroke="#ffffff"></path><path d="M1920 721L1697.7 561L1678.7 755Z" fill="#00101c" stroke="#00101c"></path><path d="M1920 721L1678.7 755L1716.7 873Z" fill="#91969b" stroke="#91969b"></path><path d="M1742.7 382L1920 353L1703.7 178Z" fill="#777d84" stroke="#777d84"></path><path d="M1920 877L1920 721L1716.7 873Z" fill="#e2e4e5" stroke="#e2e4e5"></path><path d="M1742.7 1080L1920 877L1716.7 873Z" fill="#5e656d" stroke="#5e656d"></path><path d="M1920 553L1920 353L1742.7 382Z" fill="#464e58" stroke="#464e58"></path><path d="M1703.7 178L1742.7 0L1511.3 0Z" fill="#5e656d" stroke="#5e656d"></path><path d="M1920 151L1742.7 0L1703.7 178Z" fill="#abafb3" stroke="#abafb3"></path><path d="M0 355L0 574L240.3 374Z" fill="#777d84" stroke="#777d84"></path><path d="M433.7 0L214.3 0L389.7 143Z" fill="#e2e4e5" stroke="#e2e4e5"></path><path d="M208.3 205L0 355L240.3 374Z" fill="#777d84" stroke="#777d84"></path><path d="M0 574L0 747L227.3 575Z" fill="#abafb3" stroke="#abafb3"></path><path d="M0 747L0 860L248.3 736Z" fill="#19242f" stroke="#19242f"></path><path d="M0 169L0 355L208.3 205Z" fill="#c6c9cc" stroke="#c6c9cc"></path><path d="M1742.7 1080L1920 1080L1920 877Z" fill="#777d84" stroke="#777d84"></path><path d="M1920 353L1920 151L1703.7 178Z" fill="#abafb3" stroke="#abafb3"></path><path d="M214.3 0L0 169L208.3 205Z" fill="#5e656d" stroke="#5e656d"></path><path d="M0 860L0 1080L236.3 912Z" fill="#2f3943" stroke="#2f3943"></path><path d="M1920 151L1920 0L1742.7 0Z" fill="#19242f" stroke="#19242f"></path><path d="M214.3 0L0 0L0 169Z" fill="#19242f" stroke="#19242f"></path></g></svg>